<?xml version="1.0" standalone="no"?>
<!DOCTYPE svg PUBLIC "-//W3C//DTD SVG 20010904//EN"
 "http://www.w3.org/TR/2001/REC-SVG-20010904/DTD/svg10.dtd">
<svg version="1.0" xmlns="http://www.w3.org/2000/svg"
 width="700.000000pt" height="700.000000pt" viewBox="0 0 700.000000 700.000000"
 preserveAspectRatio="xMidYMid meet">
<metadata>
Created by potrace 1.14, written by Peter Selinger 2001-2017
</metadata>
<g transform="translate(0.000000,700.000000) scale(0.100000,-0.100000)"
fill="#000000" stroke="none">
<path d="M971 6629 c-281 -55 -492 -273 -529 -547 -5 -33 -8 -1176 -7 -2539 2
-2677 -2 -2523 55 -2650 86 -190 244 -321 447 -369 62 -15 291 -17 2543 -17
1361 0 2501 3 2533 7 121 15 248 77 348 168 94 86 173 230 195 352 3 17 7
1152 8 2521 3 2354 2 2494 -15 2572 -43 198 -171 361 -352 447 -147 70 47 66
-2702 65 -1364 -1 -2500 -5 -2524 -10z m334 -3057 l-1 -2767 -144 1 c-121 2
-154 5 -201 23 -67 25 -139 86 -174 145 -56 96 -53 -69 -51 2613 l1 2478 23
58 c39 97 139 182 239 206 21 5 99 9 173 10 l135 1 0 -2768z m1598 2726 c6
-55 1 -893 -6 -933 -3 -16 -8 -64 -11 -105 -4 -41 -8 -86 -10 -100 -4 -23 -11
-83 -22 -170 -2 -19 -6 -46 -9 -60 -3 -14 -8 -38 -11 -55 -9 -53 -43 -199 -54
-235 -6 -19 -13 -44 -16 -56 -7 -36 -74 -196 -101 -244 -31 -54 -89 -128 -121
-153 -116 -94 -321 -215 -502 -296 -84 -38 -311 -121 -331 -121 -5 0 -9 542
-9 1285 l0 1285 599 0 599 0 5 -42z m1696 38 c-2 -2 -24 -7 -49 -11 -119 -17
-274 -64 -400 -122 -153 -70 -334 -222 -428 -360 -55 -82 -142 -255 -185 -368
-19 -49 -38 -99 -42 -110 -5 -11 -9 -22 -10 -25 -1 -3 -15 -50 -33 -105 -48
-153 -126 -465 -148 -595 -2 -14 -9 -47 -15 -75 -5 -27 -12 -66 -15 -85 -3
-19 -9 -57 -14 -85 -5 -27 -11 -66 -14 -85 -3 -19 -12 -89 -21 -155 -15 -102
-16 -182 -12 -530 3 -225 8 -448 11 -495 3 -47 8 -125 11 -175 6 -100 13 -180
20 -240 2 -22 7 -67 10 -100 3 -33 8 -73 10 -90 2 -16 7 -52 10 -80 4 -27 13
-93 22 -145 8 -52 17 -108 20 -125 2 -16 16 -82 29 -145 14 -63 27 -122 29
-130 10 -46 30 -117 61 -215 106 -327 237 -535 418 -657 64 -44 231 -126 311
-153 64 -22 195 -55 218 -55 9 0 17 -3 17 -7 0 -5 -249 -8 -554 -8 l-554 0 2
375 c1 439 -8 612 -45 915 -14 114 -18 140 -23 156 -3 8 -7 32 -10 55 -7 64
-64 287 -98 382 -63 179 -160 345 -250 428 -41 38 -165 132 -213 161 -221 135
-320 187 -505 264 -30 12 -59 25 -63 29 -4 4 25 19 65 35 238 91 596 306 726
435 103 103 188 258 255 465 32 98 76 280 91 375 3 19 8 46 10 60 3 14 10 68
16 120 6 52 13 106 15 120 2 14 6 68 10 120 3 52 9 122 12 155 7 82 10 700 3
803 l-5 82 654 0 c360 0 652 -2 650 -4z m1463 -28 c100 -47 172 -137 197 -246
5 -25 8 -1034 7 -2514 l-1 -2473 -33 -67 c-40 -81 -111 -148 -190 -179 -56
-21 -68 -22 -535 -23 -263 -1 -480 2 -483 5 -2 4 19 10 47 13 64 9 268 75 335
109 205 104 349 403 409 847 3 25 8 56 10 70 2 14 7 54 11 90 3 36 7 81 9 100
5 51 17 233 21 325 4 89 4 792 1 955 -3 129 -25 194 -85 262 -75 82 -181 123
-382 145 -62 7 -729 8 -735 1 -5 -5 -19 -142 -30 -295 -2 -40 -51 -35 400 -37
348 -2 393 -5 476 -29 42 -12 44 -15 49 -58 7 -61 4 -918 -4 -1039 -9 -145
-17 -242 -21 -270 -2 -14 -6 -45 -9 -70 -14 -123 -19 -152 -38 -245 -23 -115
-70 -259 -104 -325 -50 -96 -92 -125 -257 -174 -234 -72 -513 -79 -745 -21
-174 44 -318 111 -410 190 -109 94 -218 330 -290 626 -45 181 -76 357 -101
564 -19 158 -39 369 -46 485 -26 454 -26 1098 0 1140 2 3 6 32 10 65 30 283
192 933 282 1135 149 333 259 451 513 553 161 64 278 82 535 82 226 0 346 -11
500 -45 22 -5 52 -11 66 -14 17 -4 30 -16 37 -33 14 -35 50 -195 57 -248 2
-22 8 -60 11 -85 9 -59 11 -79 13 -117 1 -27 4 -31 24 -28 12 2 63 7 112 11
50 4 95 8 100 9 6 1 24 3 42 3 28 2 31 5 28 30 -2 15 -9 70 -15 122 -25 212
-69 398 -117 495 -68 133 -104 152 -373 201 -47 8 -112 17 -145 21 -33 3 -62
7 -65 10 -2 2 189 3 425 1 l430 -3 57 -27z m-4152 -3000 c245 -91 592 -294
680 -396 54 -64 121 -195 163 -322 36 -110 82 -299 92 -385 4 -27 8 -57 10
-65 2 -8 7 -37 10 -65 3 -27 8 -63 10 -80 2 -16 7 -61 10 -100 3 -38 9 -90 11
-115 7 -60 13 -907 7 -945 l-5 -30 -599 0 -599 0 0 1287 0 1287 53 -16 c28 -8
99 -33 157 -55z"/>
</g>
</svg>
